# xmcd CD database file
#
# Track frame offsets:
#	150
#	16225
#	32927
#	43227
#	58582
#	75315
#	91580
#	105757
#	115670
#	134027
#	148940
#	167437
#	179345
#	199320
#	216242
#	231872
#	248742
#	264520
#	279355
#	296025
#
# Disc length: 4173 seconds
#
# Revision: 3
# Processed by: cddbd v1.4PL0 Copyright (c) Steve Scherf et al.
# Submitted via: CDex 1.50beta10
#
DISCID=1b104b14
DTITLE=Celtic Dreams - The Haunting Sound of Traditional Irish Pipes
DYEAR=1998
DGENRE=Celtic
TTITLE0=I still haven't found what I'm looking for
TTITLE1=My love is like a red, red rose
TTITLE2=Riverdance
TTITLE3=My heart will go on
TTITLE4=The town I loved so well
TTITLE5=Molly Malone
TTITLE6=I know where I'm going
TTITLE7=Theme from Harry's Game
TTITLE8=Carrickfergus
TTITLE9=The spinning wheel
TTITLE10=She moved through the fair
TTITLE11=The mountains of Mourne
TTITLE12=Rare old times
TTITLE13=Skye Boat Song
TTITLE14=Love's old sweet song
TTITLE15=When - your were sweet sixteen
TTITLE16=Emerald dreams
TTITLE17=Down by the Sally Gardens
TTITLE18=The water is wide
TTITLE19=I'll take you home again, Kathleen
EXTD=YEAR: 1998
EXTT0=
EXTT1=
EXTT2=
EXTT3=
EXTT4=
EXTT5=
EXTT6=
EXTT7=
EXTT8=
EXTT9=
EXTT10=
EXTT11=
EXTT12=
EXTT13=
EXTT14=
EXTT15=
EXTT16=
EXTT17=
EXTT18=
EXTT19=
PLAYORDER=
